# Alias OBJ Model File
# Exported from SketchUp, (c) 2000-2012 Trimble Navigation Limited
# File units = meters

mtllib simple_building.mtl

g Mesh1 Model

usemtl FrontColor
v 4.99057 -3.60956e-16 -1.79223
vt -196.479 70.5601
vn 0 -1 -0
v 2.30057 -3.60956e-16 -1.79223
vt -90.5735 70.5601
v 2.30057 -3.60956e-16 -6.37223
vt -90.5735 250.875
v 4.99057 -3.60956e-16 -6.37223
vt -196.479 250.875
f 1/1/1 2/2/1 3/3/1 4/4/1 

vt 196.479 -1.42109e-14
vn 0 0 1
v 4.99057 1.82 -1.79223
vt 196.479 71.6535
v 3.64557 2.55 -1.79223
vt 143.526 100.394
v 2.30057 1.82 -1.79223
vt 90.5735 71.6535
vt 90.5735 -1.42109e-14
f 1/5/2 5/6/2 6/7/2 7/8/2 2/9/2 

vt 70.5601 -1.42109e-14
vn 1 0 -0
vt 250.875 -1.42109e-14
v 4.99057 1.82 -6.37223
vt 250.875 71.6535
vt 70.5601 71.6535
f 1/10/3 4/11/3 8/12/3 5/13/3 

vt -90.5735 -1.42109e-14
vn 0 0 -1
v 2.30057 1.82 -6.37223
vt -90.5735 71.6535
v 3.64557 2.55 -6.37223
vt -143.526 100.394
vt -196.479 71.6535
vt -196.479 -1.42109e-14
f 3/14/4 9/15/4 10/16/4 8/17/4 4/18/4 

vt -250.875 -1.42109e-14
vn -1 0 -0
vt -70.5601 -1.42109e-14
vt -70.5601 71.6535
vt -250.875 71.6535
f 3/19/5 2/20/5 7/21/5 9/22/5 

vt -250.875 174.034
vn -0.47702 0.878893 -5.92575e-33
vt -250.875 113.785
vt -70.5601 113.785
vt -70.5601 174.034
f 10/23/6 9/24/6 7/25/6 6/26/6 

vt 250.875 -138.504
vn 0.47702 0.878893 -0
vt 250.875 -78.2544
vt 70.5601 -78.2544
vt 70.5601 -138.504
f 8/27/7 10/28/7 6/29/7 5/30/7 

